<?xml version="1.0" encoding="UTF-8" standalone="no"?>
<!DOCTYPE svg PUBLIC "-//W3C//DTD SVG 1.1//EN"
 "http://www.w3.org/Graphics/SVG/1.1/DTD/svg11.dtd">
<!-- Generated by graphviz version 2.47.0 (20210316.0004)
 -->
<!-- Title: dependencies Pages: 1 -->
<svg width="598pt" height="211pt"
 viewBox="0.00 0.00 598.00 211.00" xmlns="http://www.w3.org/2000/svg" xmlns:xlink="http://www.w3.org/1999/xlink">
<g id="graph0" class="graph" transform="scale(1 1) rotate(0) translate(4 207)">
<title>dependencies</title>
<polygon fill="white" stroke="transparent" points="-4,4 -4,-207 594,-207 594,4 -4,4"/>
<text text-anchor="start" x="274.01" y="-42.4" font-family="Times-12" font-weight="bold" font-size="14.00">Legend</text>
<polygon fill="#ffffb3" stroke="transparent" points="61,-10 61,-30 81,-30 81,-10 61,-10"/>
<text text-anchor="start" x="84.63" y="-15.4" font-family="Times-12" font-size="14.00"> &#160;Declarations</text>
<polygon fill="#8dd3c7" stroke="transparent" points="174,-10 174,-30 194,-30 194,-10 174,-10"/>
<text text-anchor="start" x="197.73" y="-15.4" font-family="Times-12" font-size="14.00"> &#160;Module</text>
<polygon fill="#80b1d3" stroke="transparent" points="260,-10 260,-30 280,-30 280,-10 260,-10"/>
<text text-anchor="start" x="283.78" y="-15.4" font-family="Times-12" font-size="14.00"> &#160;Bootstrap</text>
<polygon fill="#fdb462" stroke="transparent" points="357,-10 357,-30 377,-30 377,-10 357,-10"/>
<text text-anchor="start" x="380.67" y="-15.4" font-family="Times-12" font-size="14.00"> &#160;Providers</text>
<polygon fill="#fb8072" stroke="transparent" points="453,-10 453,-30 473,-30 473,-10 453,-10"/>
<text text-anchor="start" x="476.73" y="-15.4" font-family="Times-12" font-size="14.00"> &#160;Exports</text>
<g id="clust1" class="cluster">
<title>cluster_RoomModule</title>
<polygon fill="none" stroke="black" stroke-dasharray="1,5" points="8,-70 8,-195 582,-195 582,-70 8,-70"/>
</g>
<g id="clust6" class="cluster">
<title>cluster_RoomModule_providers</title>
<polygon fill="none" stroke="black" points="266,-78 266,-130 574,-130 574,-78 266,-78"/>
</g>
<g id="clust3" class="cluster">
<title>cluster_RoomModule_imports</title>
<polygon fill="none" stroke="black" points="16,-78 16,-130 258,-130 258,-78 16,-78"/>
</g>
<!-- GatewayModule -->
<g id="node1" class="node">
<title>GatewayModule</title>
<polygon fill="#8dd3c7" stroke="black" points="249.8,-122 246.8,-126 225.8,-126 222.8,-122 140.2,-122 140.2,-86 249.8,-86 249.8,-122"/>
<text text-anchor="middle" x="195" y="-99.8" font-family="Times,serif" font-size="14.00">GatewayModule</text>
</g>
<!-- RoomModule -->
<g id="node3" class="node">
<title>RoomModule</title>
<polygon fill="#8dd3c7" stroke="black" points="312.78,-187 309.78,-191 288.78,-191 285.78,-187 219.22,-187 219.22,-151 312.78,-151 312.78,-187"/>
<text text-anchor="middle" x="266" y="-164.8" font-family="Times,serif" font-size="14.00">RoomModule</text>
</g>
<!-- GatewayModule&#45;&gt;RoomModule -->
<g id="edge1" class="edge">
<title>GatewayModule&#45;&gt;RoomModule</title>
<path fill="none" stroke="black" d="M234.38,-122.11C234.38,-122.11 234.38,-140.99 234.38,-140.99"/>
<polygon fill="black" stroke="black" points="230.88,-140.99 234.38,-150.99 237.88,-140.99 230.88,-140.99"/>
</g>
<!-- PrismaModule -->
<g id="node2" class="node">
<title>PrismaModule</title>
<polygon fill="#8dd3c7" stroke="black" points="122.43,-122 119.43,-126 98.43,-126 95.43,-122 23.57,-122 23.57,-86 122.43,-86 122.43,-122"/>
<text text-anchor="middle" x="73" y="-99.8" font-family="Times,serif" font-size="14.00">PrismaModule</text>
</g>
<!-- PrismaModule&#45;&gt;RoomModule -->
<g id="edge2" class="edge">
<title>PrismaModule&#45;&gt;RoomModule</title>
<path fill="none" stroke="black" d="M73,-122.11C73,-141.34 73,-169 73,-169 73,-169 208.79,-169 208.79,-169"/>
<polygon fill="black" stroke="black" points="208.79,-172.5 218.79,-169 208.79,-165.5 208.79,-172.5"/>
</g>
<!-- PropertyService -->
<g id="node4" class="node">
<title>PropertyService</title>
<ellipse fill="#fdb462" stroke="black" cx="493" cy="-104" rx="73.49" ry="18"/>
<text text-anchor="middle" x="493" y="-99.8" font-family="Times,serif" font-size="14.00">PropertyService</text>
</g>
<!-- PropertyService&#45;&gt;RoomModule -->
<g id="edge3" class="edge">
<title>PropertyService&#45;&gt;RoomModule</title>
<path fill="none" stroke="black" d="M493,-122.11C493,-141.34 493,-169 493,-169 493,-169 323.03,-169 323.03,-169"/>
<polygon fill="black" stroke="black" points="323.03,-165.5 313.03,-169 323.03,-172.5 323.03,-165.5"/>
</g>
<!-- RoomService -->
<g id="node5" class="node">
<title>RoomService</title>
<ellipse fill="#fdb462" stroke="black" cx="338" cy="-104" rx="63.7" ry="18"/>
<text text-anchor="middle" x="338" y="-99.8" font-family="Times,serif" font-size="14.00">RoomService</text>
</g>
<!-- RoomService&#45;&gt;RoomModule -->
<g id="edge4" class="edge">
<title>RoomService&#45;&gt;RoomModule</title>
<path fill="none" stroke="black" d="M293.64,-117.15C293.64,-117.15 293.64,-140.69 293.64,-140.69"/>
<polygon fill="black" stroke="black" points="290.14,-140.69 293.64,-150.69 297.14,-140.69 290.14,-140.69"/>
</g>
</g>
</svg>
