<?xml version="1.0" encoding="UTF-8" standalone="no"?>
<!DOCTYPE svg PUBLIC "-//W3C//DTD SVG 1.1//EN"
 "http://www.w3.org/Graphics/SVG/1.1/DTD/svg11.dtd">
<!-- Generated by graphviz version 2.47.0 (20210316.0004)
 -->
<!-- Title: dependencies Pages: 1 -->
<svg width="911pt" height="211pt"
 viewBox="0.00 0.00 911.00 211.00" xmlns="http://www.w3.org/2000/svg" xmlns:xlink="http://www.w3.org/1999/xlink">
<g id="graph0" class="graph" transform="scale(1 1) rotate(0) translate(4 207)">
<title>dependencies</title>
<polygon fill="white" stroke="transparent" points="-4,4 -4,-207 907,-207 907,4 -4,4"/>
<text text-anchor="start" x="430.51" y="-42.4" font-family="Times-12" font-weight="bold" font-size="14.00">Legend</text>
<polygon fill="#ffffb3" stroke="transparent" points="217.5,-10 217.5,-30 237.5,-30 237.5,-10 217.5,-10"/>
<text text-anchor="start" x="241.13" y="-15.4" font-family="Times-12" font-size="14.00"> &#160;Declarations</text>
<polygon fill="#8dd3c7" stroke="transparent" points="330.5,-10 330.5,-30 350.5,-30 350.5,-10 330.5,-10"/>
<text text-anchor="start" x="354.23" y="-15.4" font-family="Times-12" font-size="14.00"> &#160;Module</text>
<polygon fill="#80b1d3" stroke="transparent" points="416.5,-10 416.5,-30 436.5,-30 436.5,-10 416.5,-10"/>
<text text-anchor="start" x="440.28" y="-15.4" font-family="Times-12" font-size="14.00"> &#160;Bootstrap</text>
<polygon fill="#fdb462" stroke="transparent" points="513.5,-10 513.5,-30 533.5,-30 533.5,-10 513.5,-10"/>
<text text-anchor="start" x="537.17" y="-15.4" font-family="Times-12" font-size="14.00"> &#160;Providers</text>
<polygon fill="#fb8072" stroke="transparent" points="609.5,-10 609.5,-30 629.5,-30 629.5,-10 609.5,-10"/>
<text text-anchor="start" x="633.23" y="-15.4" font-family="Times-12" font-size="14.00"> &#160;Exports</text>
<g id="clust1" class="cluster">
<title>cluster_AppModule</title>
<polygon fill="none" stroke="black" stroke-dasharray="1,5" points="8,-70 8,-195 895,-195 895,-70 8,-70"/>
</g>
<g id="clust3" class="cluster">
<title>cluster_AppModule_imports</title>
<polygon fill="none" stroke="black" points="174,-78 174,-130 887,-130 887,-78 174,-78"/>
</g>
<g id="clust6" class="cluster">
<title>cluster_AppModule_providers</title>
<polygon fill="none" stroke="black" points="16,-78 16,-130 166,-130 166,-78 16,-78"/>
</g>
<!-- AuthModule -->
<g id="node1" class="node">
<title>AuthModule</title>
<polygon fill="#8dd3c7" stroke="black" points="878.55,-122 875.55,-126 854.55,-126 851.55,-122 791.45,-122 791.45,-86 878.55,-86 878.55,-122"/>
<text text-anchor="middle" x="835" y="-99.8" font-family="Times,serif" font-size="14.00">AuthModule</text>
</g>
<!-- AppModule -->
<g id="node7" class="node">
<title>AppModule</title>
<polygon fill="#8dd3c7" stroke="black" points="488.66,-187 485.66,-191 464.66,-191 461.66,-187 405.34,-187 405.34,-151 488.66,-151 488.66,-187"/>
<text text-anchor="middle" x="447" y="-164.8" font-family="Times,serif" font-size="14.00">AppModule</text>
</g>
<!-- AuthModule&#45;&gt;AppModule -->
<g id="edge1" class="edge">
<title>AuthModule&#45;&gt;AppModule</title>
<path fill="none" stroke="black" d="M835,-122.29C835,-144.21 835,-178 835,-178 835,-178 498.89,-178 498.89,-178"/>
<polygon fill="black" stroke="black" points="498.89,-174.5 488.89,-178 498.89,-181.5 498.89,-174.5"/>
</g>
<!-- GatewayModule -->
<g id="node2" class="node">
<title>GatewayModule</title>
<polygon fill="#8dd3c7" stroke="black" points="773.8,-122 770.8,-126 749.8,-126 746.8,-122 664.2,-122 664.2,-86 773.8,-86 773.8,-122"/>
<text text-anchor="middle" x="719" y="-99.8" font-family="Times,serif" font-size="14.00">GatewayModule</text>
</g>
<!-- GatewayModule&#45;&gt;AppModule -->
<g id="edge2" class="edge">
<title>GatewayModule&#45;&gt;AppModule</title>
<path fill="none" stroke="black" d="M719,-122.11C719,-141.34 719,-169 719,-169 719,-169 498.9,-169 498.9,-169"/>
<polygon fill="black" stroke="black" points="498.9,-165.5 488.9,-169 498.9,-172.5 498.9,-165.5"/>
</g>
<!-- MediaServerModule -->
<g id="node3" class="node">
<title>MediaServerModule</title>
<polygon fill="#8dd3c7" stroke="black" points="645.85,-122 642.85,-126 621.85,-126 618.85,-122 514.15,-122 514.15,-86 645.85,-86 645.85,-122"/>
<text text-anchor="middle" x="580" y="-99.8" font-family="Times,serif" font-size="14.00">MediaServerModule</text>
</g>
<!-- MediaServerModule&#45;&gt;AppModule -->
<g id="edge3" class="edge">
<title>MediaServerModule&#45;&gt;AppModule</title>
<path fill="none" stroke="black" d="M580,-122.03C580,-138.4 580,-160 580,-160 580,-160 498.72,-160 498.72,-160"/>
<polygon fill="black" stroke="black" points="498.72,-156.5 488.72,-160 498.72,-163.5 498.72,-156.5"/>
</g>
<!-- PrismaModule -->
<g id="node4" class="node">
<title>PrismaModule</title>
<polygon fill="#8dd3c7" stroke="black" points="496.43,-122 493.43,-126 472.43,-126 469.43,-122 397.57,-122 397.57,-86 496.43,-86 496.43,-122"/>
<text text-anchor="middle" x="447" y="-99.8" font-family="Times,serif" font-size="14.00">PrismaModule</text>
</g>
<!-- PrismaModule&#45;&gt;AppModule -->
<g id="edge4" class="edge">
<title>PrismaModule&#45;&gt;AppModule</title>
<path fill="none" stroke="black" d="M447,-122.11C447,-122.11 447,-140.99 447,-140.99"/>
<polygon fill="black" stroke="black" points="443.5,-140.99 447,-150.99 450.5,-140.99 443.5,-140.99"/>
</g>
<!-- RoomModule -->
<g id="node5" class="node">
<title>RoomModule</title>
<polygon fill="#8dd3c7" stroke="black" points="379.78,-122 376.78,-126 355.78,-126 352.78,-122 286.22,-122 286.22,-86 379.78,-86 379.78,-122"/>
<text text-anchor="middle" x="333" y="-99.8" font-family="Times,serif" font-size="14.00">RoomModule</text>
</g>
<!-- RoomModule&#45;&gt;AppModule -->
<g id="edge5" class="edge">
<title>RoomModule&#45;&gt;AppModule</title>
<path fill="none" stroke="black" d="M333,-122.03C333,-138.4 333,-160 333,-160 333,-160 395.2,-160 395.2,-160"/>
<polygon fill="black" stroke="black" points="395.2,-163.5 405.2,-160 395.2,-156.5 395.2,-163.5"/>
</g>
<!-- UserModule -->
<g id="node6" class="node">
<title>UserModule</title>
<polygon fill="#8dd3c7" stroke="black" points="267.98,-122 264.98,-126 243.98,-126 240.98,-122 182.02,-122 182.02,-86 267.98,-86 267.98,-122"/>
<text text-anchor="middle" x="225" y="-99.8" font-family="Times,serif" font-size="14.00">UserModule</text>
</g>
<!-- UserModule&#45;&gt;AppModule -->
<g id="edge6" class="edge">
<title>UserModule&#45;&gt;AppModule</title>
<path fill="none" stroke="black" d="M225,-122.11C225,-141.34 225,-169 225,-169 225,-169 395.24,-169 395.24,-169"/>
<polygon fill="black" stroke="black" points="395.24,-172.5 405.24,-169 395.24,-165.5 395.24,-172.5"/>
</g>
<!-- PrismaService -->
<g id="node8" class="node">
<title>PrismaService</title>
<ellipse fill="#fdb462" stroke="black" cx="91" cy="-104" rx="66.63" ry="18"/>
<text text-anchor="middle" x="91" y="-99.8" font-family="Times,serif" font-size="14.00">PrismaService</text>
</g>
<!-- PrismaService&#45;&gt;AppModule -->
<g id="edge7" class="edge">
<title>PrismaService&#45;&gt;AppModule</title>
<path fill="none" stroke="black" d="M91,-122.29C91,-144.21 91,-178 91,-178 91,-178 395.12,-178 395.12,-178"/>
<polygon fill="black" stroke="black" points="395.12,-181.5 405.12,-178 395.12,-174.5 395.12,-181.5"/>
</g>
</g>
</svg>
