<?xml version="1.0" encoding="UTF-8" standalone="no"?>
<!DOCTYPE svg PUBLIC "-//W3C//DTD SVG 1.1//EN"
 "http://www.w3.org/Graphics/SVG/1.1/DTD/svg11.dtd">
<!-- Generated by graphviz version 2.47.0 (20210316.0004)
 -->
<!-- Title: dependencies Pages: 1 -->
<svg width="504pt" height="211pt"
 viewBox="0.00 0.00 504.00 211.00" xmlns="http://www.w3.org/2000/svg" xmlns:xlink="http://www.w3.org/1999/xlink">
<g id="graph0" class="graph" transform="scale(1 1) rotate(0) translate(4 207)">
<title>dependencies</title>
<polygon fill="white" stroke="transparent" points="-4,4 -4,-207 500,-207 500,4 -4,4"/>
<text text-anchor="start" x="227.01" y="-42.4" font-family="Times-12" font-weight="bold" font-size="14.00">Legend</text>
<polygon fill="#ffffb3" stroke="transparent" points="14,-10 14,-30 34,-30 34,-10 14,-10"/>
<text text-anchor="start" x="37.63" y="-15.4" font-family="Times-12" font-size="14.00"> &#160;Declarations</text>
<polygon fill="#8dd3c7" stroke="transparent" points="127,-10 127,-30 147,-30 147,-10 127,-10"/>
<text text-anchor="start" x="150.73" y="-15.4" font-family="Times-12" font-size="14.00"> &#160;Module</text>
<polygon fill="#80b1d3" stroke="transparent" points="213,-10 213,-30 233,-30 233,-10 213,-10"/>
<text text-anchor="start" x="236.78" y="-15.4" font-family="Times-12" font-size="14.00"> &#160;Bootstrap</text>
<polygon fill="#fdb462" stroke="transparent" points="310,-10 310,-30 330,-30 330,-10 310,-10"/>
<text text-anchor="start" x="333.67" y="-15.4" font-family="Times-12" font-size="14.00"> &#160;Providers</text>
<polygon fill="#fb8072" stroke="transparent" points="406,-10 406,-30 426,-30 426,-10 406,-10"/>
<text text-anchor="start" x="429.73" y="-15.4" font-family="Times-12" font-size="14.00"> &#160;Exports</text>
<g id="clust1" class="cluster">
<title>cluster_MediaServerModule</title>
<polygon fill="none" stroke="black" stroke-dasharray="1,5" points="33.5,-70 33.5,-195 462.5,-195 462.5,-70 33.5,-70"/>
</g>
<g id="clust3" class="cluster">
<title>cluster_MediaServerModule_imports</title>
<polygon fill="none" stroke="black" points="344.5,-78 344.5,-130 454.5,-130 454.5,-78 344.5,-78"/>
</g>
<g id="clust6" class="cluster">
<title>cluster_MediaServerModule_providers</title>
<polygon fill="none" stroke="black" points="41.5,-78 41.5,-130 336.5,-130 336.5,-78 41.5,-78"/>
</g>
<!-- RoomModule -->
<g id="node1" class="node">
<title>RoomModule</title>
<polygon fill="#8dd3c7" stroke="black" points="446.28,-122 443.28,-126 422.28,-126 419.28,-122 352.72,-122 352.72,-86 446.28,-86 446.28,-122"/>
<text text-anchor="middle" x="399.5" y="-99.8" font-family="Times,serif" font-size="14.00">RoomModule</text>
</g>
<!-- MediaServerModule -->
<g id="node2" class="node">
<title>MediaServerModule</title>
<polygon fill="#8dd3c7" stroke="black" points="327.35,-187 324.35,-191 303.35,-191 300.35,-187 195.65,-187 195.65,-151 327.35,-151 327.35,-187"/>
<text text-anchor="middle" x="261.5" y="-164.8" font-family="Times,serif" font-size="14.00">MediaServerModule</text>
</g>
<!-- RoomModule&#45;&gt;MediaServerModule -->
<g id="edge1" class="edge">
<title>RoomModule&#45;&gt;MediaServerModule</title>
<path fill="none" stroke="black" d="M399.5,-122.11C399.5,-141.34 399.5,-169 399.5,-169 399.5,-169 337.67,-169 337.67,-169"/>
<polygon fill="black" stroke="black" points="337.67,-165.5 327.67,-169 337.67,-172.5 337.67,-165.5"/>
</g>
<!-- PrismaService -->
<g id="node3" class="node">
<title>PrismaService</title>
<ellipse fill="#fdb462" stroke="black" cx="261.5" cy="-104" rx="66.63" ry="18"/>
<text text-anchor="middle" x="261.5" y="-99.8" font-family="Times,serif" font-size="14.00">PrismaService</text>
</g>
<!-- PrismaService&#45;&gt;MediaServerModule -->
<g id="edge2" class="edge">
<title>PrismaService&#45;&gt;MediaServerModule</title>
<path fill="none" stroke="black" d="M261.5,-122.11C261.5,-122.11 261.5,-140.99 261.5,-140.99"/>
<polygon fill="black" stroke="black" points="258,-140.99 261.5,-150.99 265,-140.99 258,-140.99"/>
</g>
<!-- RoomService -->
<g id="node4" class="node">
<title>RoomService</title>
<ellipse fill="#fdb462" stroke="black" cx="113.5" cy="-104" rx="63.7" ry="18"/>
<text text-anchor="middle" x="113.5" y="-99.8" font-family="Times,serif" font-size="14.00">RoomService</text>
</g>
<!-- RoomService&#45;&gt;MediaServerModule -->
<g id="edge3" class="edge">
<title>RoomService&#45;&gt;MediaServerModule</title>
<path fill="none" stroke="black" d="M113.5,-122.11C113.5,-141.34 113.5,-169 113.5,-169 113.5,-169 185.29,-169 185.29,-169"/>
<polygon fill="black" stroke="black" points="185.29,-172.5 195.29,-169 185.29,-165.5 185.29,-172.5"/>
</g>
</g>
</svg>
